# Rhino

g object_1
v -126 -5.44444465637207 312.39013671875
v -126 5.222222328186035 312.39013671875
v 222 -5.44444465637207 312.39013671875
v 222 5.222222328186035 312.39013671875
v 222 -5.44444465637207 312.39013671875
v 222 5.222222328186035 312.39013671875
v 222 -5.44444465637207 122
v 222 5.222222328186035 122
v 222 -5.44444465637207 122
v 222 5.222222328186035 122
v -126 -5.44444465637207 122
v -126 5.222222328186035 122
v -126 -5.44444465637207 122
v -126 5.222222328186035 122
v -126 -5.44444465637207 312.39013671875
v -126 5.222222328186035 312.39013671875
v -126 -5.44444465637207 312.39013671875
v 222 -5.44444465637207 312.39013671875
v 222 -5.44444465637207 122
v -126 -5.44444465637207 122
v -126 5.222222328186035 312.39013671875
v 222 5.222222328186035 312.39013671875
v 222 5.222222328186035 122
v -126 5.222222328186035 122
vt 0 0
vt 0 0.5136244297027588
vt 0.2081339657306671 0
vt 0.2081339657306671 0.5136244297027588
vt 0.2081339657306671 0
vt 0.2081339657306671 0.5136244297027588
vt 0.5 0
vt 0.5 0.5136244297027588
vt 0.5 0
vt 0.5 0.5136244297027588
vt 0.7081339955329895 0
vt 0.7081339955329895 0.5136244297027588
vt 0.7081339955329895 0
vt 0.7081339955329895 0.5136244297027588
vt 1 0
vt 1 0.5136244297027588
vt 0 1
vt 0.3231857120990753 1
vt 0.3231857120990753 0.513624906539917
vt 0 0.513624906539917
vt 0.6768143177032471 0.513624906539917
vt 1 0.513624906539917
vt 1 1
vt 0.6768143177032471 1
vn 0 0 1
vn 0 0 1
vn 0 0 1
vn 0 0 1
vn 1 0 0
vn 1 0 0
vn 1 0 0
vn 1 0 0
vn 0 0 -1
vn 0 0 -1
vn 0 0 -1
vn 0 0 -1
vn -1 0 0
vn -1 0 0
vn -1 0 0
vn -1 0 0
vn 0 -1 0
vn 0 -1 0
vn 0 -1 0
vn 0 -1 0
vn 0 1 0
vn 0 1 0
vn 0 1 0
vn 0 1 0
f 1/1/1 3/3/3 4/4/4 2/2/2
f 5/5/5 7/7/7 8/8/8 6/6/6
f 9/9/9 11/11/11 12/12/12 10/10/10
f 13/13/13 15/15/15 16/16/16 14/14/14
f 18/18/18 17/17/17 20/20/20
f 20/20/20 19/19/19 18/18/18
f 22/22/22 24/24/24 21/21/21
f 24/24/24 22/22/22 23/23/23
g object_2
v -126 -5.44444465637207 60.39014434814453
v -126 5.222222328186035 60.39014434814453
v 222 -5.44444465637207 60.39014434814453
v 222 5.222222328186035 60.39014434814453
v 222 -5.44444465637207 60.39014434814453
v 222 5.222222328186035 60.39014434814453
v 222 -5.44444465637207 -130
v 222 5.222222328186035 -130
v 222 -5.44444465637207 -130
v 222 5.222222328186035 -130
v -126 -5.44444465637207 -130
v -126 5.222222328186035 -130
v -126 -5.44444465637207 -130
v -126 5.222222328186035 -130
v -126 -5.44444465637207 60.39014434814453
v -126 5.222222328186035 60.39014434814453
v -126 -5.44444465637207 60.39014434814453
v 222 -5.44444465637207 60.39014434814453
v 222 -5.44444465637207 -130
v -126 -5.44444465637207 -130
v -126 5.222222328186035 60.39014434814453
v 222 5.222222328186035 60.39014434814453
v 222 5.222222328186035 -130
v -126 5.222222328186035 -130
vt 0 0
vt 0 0.5136244297027588
vt 0.2081339657306671 0
vt 0.2081339657306671 0.5136244297027588
vt 0.2081339657306671 0
vt 0.2081339657306671 0.5136244297027588
vt 0.5 0
vt 0.5 0.5136244297027588
vt 0.5 0
vt 0.5 0.5136244297027588
vt 0.7081339955329895 0
vt 0.7081339955329895 0.5136244297027588
vt 0.7081339955329895 0
vt 0.7081339955329895 0.5136244297027588
vt 1 0
vt 1 0.5136244297027588
vt 0 1
vt 0.3231857120990753 1
vt 0.3231857120990753 0.513624906539917
vt 0 0.513624906539917
vt 0.6768143177032471 0.513624906539917
vt 1 0.513624906539917
vt 1 1
vt 0.6768143177032471 1
vn 0 0 1
vn 0 0 1
vn 0 0 1
vn 0 0 1
vn 1 0 0
vn 1 0 0
vn 1 0 0
vn 1 0 0
vn 0 0 -1
vn 0 0 -1
vn 0 0 -1
vn 0 0 -1
vn -1 0 0
vn -1 0 0
vn -1 0 0
vn -1 0 0
vn 0 -1 0
vn 0 -1 0
vn 0 -1 0
vn 0 -1 0
vn 0 1 0
vn 0 1 0
vn 0 1 0
vn 0 1 0
f 25/25/25 27/27/27 28/28/28 26/26/26
f 29/29/29 31/31/31 32/32/32 30/30/30
f 33/33/33 35/35/35 36/36/36 34/34/34
f 37/37/37 39/39/39 40/40/40 38/38/38
f 42/42/42 41/41/41 44/44/44
f 44/44/44 43/43/43 42/42/42
f 46/46/46 48/48/48 45/45/45
f 48/48/48 46/46/46 47/47/47
g object_3
v 272.60986328125 -5.44444465637207 -131.9887390136719
v 272.60986328125 5.222222328186035 -131.9887390136719
v 272.60986328125 -5.44444465637207 314.9887390136719
v 272.60986328125 5.222222328186035 314.9887390136719
v 272.60986328125 -5.44444465637207 314.9887390136719
v 272.60986328125 5.222222328186035 314.9887390136719
v 463 -5.44444465637207 314.9887390136719
v 463 5.222222328186035 314.9887390136719
v 463 -5.44444465637207 314.9887390136719
v 463 5.222222328186035 314.9887390136719
v 463 -5.44444465637207 -131.9887390136719
v 463 5.222222328186035 -131.9887390136719
v 463 -5.44444465637207 -131.9887390136719
v 463 5.222222328186035 -131.9887390136719
v 272.60986328125 -5.44444465637207 -131.9887390136719
v 272.60986328125 5.222222328186035 -131.9887390136719
v 272.60986328125 -5.44444465637207 -131.9887390136719
v 272.60986328125 -5.44444465637207 314.9887390136719
v 463 -5.44444465637207 314.9887390136719
v 463 -5.44444465637207 -131.9887390136719
v 272.60986328125 5.222222328186035 -131.9887390136719
v 272.60986328125 5.222222328186035 314.9887390136719
v 463 5.222222328186035 314.9887390136719
v 463 5.222222328186035 -131.9887390136719
vt 0 0
vt 0 0.5136244297027588
vt 0.2081339657306671 0
vt 0.2081339657306671 0.5136244297027588
vt 0.2081339657306671 0
vt 0.2081339657306671 0.5136244297027588
vt 0.5 0
vt 0.5 0.5136244297027588
vt 0.5 0
vt 0.5 0.5136244297027588
vt 0.7081339955329895 0
vt 0.7081339955329895 0.5136244297027588
vt 0.7081339955329895 0
vt 0.7081339955329895 0.5136244297027588
vt 1 0
vt 1 0.5136244297027588
vt 0 1
vt 0.3506433963775635 1
vt 0.3506433963775635 0.513624906539917
vt 0 0.513624906539917
vt 0.6493566036224365 0.513624906539917
vt 1 0.513624906539917
vt 1 1
vt 0.6493566036224365 1
vn -1 0 0
vn -1 0 0
vn -1 0 0
vn -1 0 0
vn 0 0 1
vn 0 0 1
vn 0 0 1
vn 0 0 1
vn 1 0 0
vn 1 0 0
vn 1 0 0
vn 1 0 0
vn 0 0 -1
vn 0 0 -1
vn 0 0 -1
vn 0 0 -1
vn 0 -1 0
vn 0 -1 0
vn 0 -1 0
vn 0 -1 0
vn 0 1 0
vn 0 1 0
vn 0 1 0
vn 0 1 0
f 49/49/49 51/51/51 52/52/52 50/50/50
f 53/53/53 55/55/55 56/56/56 54/54/54
f 57/57/57 59/59/59 60/60/60 58/58/58
f 61/61/61 63/63/63 64/64/64 62/62/62
f 66/66/66 65/65/65 68/68/68
f 68/68/68 67/67/67 66/66/66
f 70/70/70 72/72/72 69/69/69
f 72/72/72 70/70/70 71/71/71
