# Rhino

g object_1
v -71 -5.44444465637207 340
v -71 5.222222328186035 340
v 277 -5.44444465637207 340
v 277 5.222222328186035 340
v 103 -5.44444465637207 340
v 103 5.222222328186035 340
v 277 -5.44444465637207 -2
v 277 5.222222328186035 -2
v 277 -5.44444465637207 -148
v 277 5.222222328186035 -148
v 277 -5.44444465637207 -75
v 277 5.222222328186035 -75
v 277 -5.44444465637207 -148
v 277 5.222222328186035 -148
v -71 -5.44444465637207 -148
v -71 5.222222328186035 -148
v 103 -5.44444465637207 -148
v 103 5.222222328186035 -148
v -71 -5.44444465637207 -148
v -71 5.222222328186035 -148
v -71 -5.44444465637207 340
v -71 5.222222328186035 340
v -71 -5.44444465637207 96
v -71 5.222222328186035 96
v -71 -5.44444465637207 340
v -71 -5.44444465637207 -148
v 277 -5.44444465637207 340
v 277 -5.44444465637207 -148
v 103 -5.44444465637207 340
v 277 -5.44444465637207 267.5
v 277 -5.44444465637207 195
v 103 -5.44444465637207 -148
v -71 -5.44444465637207 96
v 164.5 -5.44444465637207 195
v 52 -5.44444465637207 195
v 52 -5.44444465637207 96.5
v 52 -5.44444465637207 -2
v 164.5 -5.44444465637207 -2
v 277 -5.44444465637207 -2
v 277 -5.44444465637207 -75
v -71 5.222222328186035 340
v -71 5.222222328186035 -148
v 277 5.222222328186035 340
v 277 5.222222328186035 -148
v 103 5.222222328186035 340
v 277 5.222222328186035 267.5
v 277 5.222222328186035 195
v 103 5.222222328186035 -148
v -71 5.222222328186035 96
v 164.5 5.222222328186035 195
v 52 5.222222328186035 195
v 52 5.222222328186035 96.5
v 52 5.222222328186035 -2
v 164.5 5.222222328186035 -2
v 277 5.222222328186035 -2
v 277 5.222222328186035 -75
v 52 -5.44444465637207 -2
v 277 5.222222328186035 -2
v 277 -5.44444465637207 -2
v 164.5 -5.44444465637207 -2
v 52 5.222222328186035 -2
v 164.5 5.222222328186035 -2
v 277 -5.44444465637207 340
v 277 5.222222328186035 340
v 277 -5.44444465637207 195
v 277 5.222222328186035 195
v 277 -5.44444465637207 267.5
v 277 5.222222328186035 267.5
v 277 5.222222328186035 195
v 277 -5.44444465637207 195
v 52 5.222222328186035 195
v 52 -5.44444465637207 195
v 164.5 -5.44444465637207 195
v 164.5 5.222222328186035 195
v 52 -5.44444465637207 195
v 52 5.222222328186035 -2
v 52 -5.44444465637207 -2
v 52 -5.44444465637207 96.5
v 52 5.222222328186035 195
v 52 5.222222328186035 96.5
vt 0.1058148518204689 0
vt 0.09195402264595032 0
vt 0.1058148518204689 0.5
vt 0.09195402264595032 0.5
vt 0.1058148518204689 0.25
vt 0.09195402264595032 0.25
vt 0.02918649651110172 0
vt 0.01532567013055086 0
vt 0.02918649651110172 0.2097701132297516
vt 0.01532567013055086 0.2097701132297516
vt 0.02918649651110172 0.1048850566148758
vt 0.01532567013055086 0.1048850566148758
vt 0.09048917889595032 0
vt 0.07662834972143173 0
vt 0.09048917889595032 0.5
vt 0.07662834972143173 0.5
vt 0.09048917889595032 0.25
vt 0.07662834972143173 0.25
vt 0.1211405172944069 0
vt 0.1072796955704689 0
vt 0.1211405172944069 0.7011494040489197
vt 0.1072796955704689 0.7011494040489197
vt 0.1211405172944069 0.3505747020244598
vt 0.1072796955704689 0.3505747020244598
vt 0.8222899436950684 0.5
vt 0.1226053610444069 0.5
vt 0.8222899436950684 0.99853515625
vt 0.1226053610444069 0.99853515625
vt 0.8222899436950684 0.749267578125
vt 0.7183408737182617 0.99853515625
vt 0.6143918633460999 0.99853515625
vt 0.1226053610444069 0.749267578125
vt 0.4724476635456085 0.5
vt 0.6143918633460999 0.837370753288269
vt 0.6143918633460999 0.6762064099311829
vt 0.4731645584106445 0.6762064099311829
vt 0.3319372236728668 0.6762064099311829
vt 0.3319372236728668 0.837370753288269
vt 0.3319372236728668 0.99853515625
vt 0.2272712737321854 0.99853515625
vt 0.8222899436950684 0
vt 0.1226053610444069 0
vt 0.8222899436950684 0.49853515625
vt 0.1226053610444069 0.49853515625
vt 0.8222899436950684 0.249267578125
vt 0.7183408737182617 0.49853515625
vt 0.6143918633460999 0.49853515625
vt 0.1226053610444069 0.249267578125
vt 0.4724476635456085 0
vt 0.6143918633460999 0.3373707830905914
vt 0.6143918633460999 0.1762063950300217
vt 0.4731645584106445 0.1762063950300217
vt 0.3319372236728668 0.1762063950300217
vt 0.3319372236728668 0.3373707830905914
vt 0.3319372236728668 0.49853515625
vt 0.2272712737321854 0.49853515625
vt 0.06130268052220345 0
vt 0.07516350597143173 0.3232758641242981
vt 0.06130268052220345 0.3232758641242981
vt 0.06130268052220345 0.1616379320621491
vt 0.07516350597143173 0
vt 0.07516350597143173 0.1616379320621491
vt 0.01386082638055086 0
vt 0 0
vt 0.01386082638055086 0.2083333283662796
vt 0 0.2083333283662796
vt 0.01386082638055086 0.1041666641831398
vt 0 0.1041666641831398
vt 0.05983783677220345 0
vt 0.04597701132297516 0
vt 0.05983783677220345 0.3232758641242981
vt 0.04597701132297516 0.3232758641242981
vt 0.04597701132297516 0.1616379320621491
vt 0.05983783677220345 0.1616379320621491
vt 0.03065134026110172 0
vt 0.04451216757297516 0.2830459773540497
vt 0.03065134026110172 0.2830459773540497
vt 0.03065134026110172 0.1415229886770248
vt 0.04451216757297516 0
vt 0.04451216757297516 0.1415229886770248
vn 0 0 1
vn 0 0 1
vn 0 0 1
vn 0 0 1
vn 0 0 1
vn 0 0 1
vn 1 0 0
vn 1 0 0
vn 1 0 0
vn 1 0 0
vn 1 0 0
vn 1 0 0
vn 0 0 -1
vn 0 0 -1
vn 0 0 -1
vn 0 0 -1
vn 0 0 -1
vn 0 0 -1
vn -1 0 0
vn -1 0 0
vn -1 0 0
vn -1 0 0
vn -1 0 0
vn -1 0 0
vn 0 -1 0
vn 0 -1 0
vn 0 -1 0
vn 0 -1 0
vn 0 -1 0
vn 0 -1 0
vn 0 -1 0
vn 0 -1 0
vn 0 -1 0
vn 0 -1 0
vn 0 -1 0
vn 0 -1 0
vn 0 -1 0
vn 0 -1 0
vn 0 -1 0
vn 0 -1 0
vn 0 1 0
vn 0 1 0
vn 0 1 0
vn 0 1 0
vn 0 1 0
vn 0 1 0
vn 0 1 0
vn 0 1 0
vn 0 1 0
vn 0 1 0
vn 0 1 0
vn 0 1 0
vn 0 1 0
vn 0 1 0
vn 0 1 0
vn 0 1 0
vn 0 0 1
vn -4.336808689942018e-19 0 1
vn 0 0 1
vn 0 0 1
vn 0 0 1
vn 0 0 1
vn 1 0 0
vn 1 0 0
vn 1 0 0
vn 1 0 0
vn 1 0 0
vn 1 0 0
vn 2.775557561562891e-17 0 -1
vn 0 0 -1
vn 2.775557561562891e-17 0 -1
vn 0 0 -1
vn 0 0 -1
vn 2.775557561562891e-17 0 -1
vn 1 0 0
vn 1 0 -2.775557561562891e-17
vn 1 0 0
vn 1 0 0
vn 1 0 -1.387778780781446e-17
vn 1 0 -2.775557561562891e-17
f 2/2/2 1/1/1 5/5/5 6/6/6
f 3/3/3 4/4/4 6/6/6 5/5/5
f 8/8/8 7/7/7 11/11/11 12/12/12
f 9/9/9 10/10/10 12/12/12 11/11/11
f 14/14/14 13/13/13 17/17/17 18/18/18
f 15/15/15 16/16/16 18/18/18 17/17/17
f 20/20/20 19/19/19 23/23/23 24/24/24
f 21/21/21 22/22/22 24/24/24 23/23/23
f 35/35/35 25/25/25 33/33/33
f 29/29/29 25/25/25 35/35/35
f 36/36/36 35/35/35 33/33/33
f 37/37/37 33/33/33 26/26/26
f 26/26/26 32/32/32 37/37/37
f 37/37/37 32/32/32 38/38/38
f 37/37/37 36/36/36 33/33/33
f 29/29/29 35/35/35 34/34/34
f 30/30/30 27/27/27 34/34/34
f 29/29/29 34/34/34 27/27/27
f 34/34/34 31/31/31 30/30/30
f 40/40/40 39/39/39 38/38/38
f 38/38/38 28/28/28 40/40/40
f 32/32/32 28/28/28 38/38/38
f 51/51/51 49/49/49 41/41/41
f 45/45/45 51/51/51 41/41/41
f 52/52/52 49/49/49 51/51/51
f 53/53/53 42/42/42 49/49/49
f 42/42/42 53/53/53 48/48/48
f 53/53/53 54/54/54 48/48/48
f 53/53/53 49/49/49 52/52/52
f 45/45/45 50/50/50 51/51/51
f 46/46/46 50/50/50 43/43/43
f 45/45/45 43/43/43 50/50/50
f 50/50/50 46/46/46 47/47/47
f 56/56/56 54/54/54 55/55/55
f 54/54/54 56/56/56 44/44/44
f 48/48/48 54/54/54 44/44/44
f 57/57/57 60/60/60 62/62/62 61/61/61
f 58/58/58 62/62/62 60/60/60 59/59/59
f 64/64/64 63/63/63 67/67/67 68/68/68
f 65/65/65 66/66/66 68/68/68 67/67/67
f 70/70/70 73/73/73 74/74/74 69/69/69
f 71/71/71 74/74/74 73/73/73 72/72/72
f 75/75/75 78/78/78 80/80/80 79/79/79
f 76/76/76 80/80/80 78/78/78 77/77/77
