# Rhino

g object_1
v -74 -5.44444465637207 -74
v -74 5.222222328186035 -74
v -74 -5.44444465637207 274
v -74 5.222222328186035 274
v -74 -5.44444465637207 100
v -74 5.222222328186035 100
v -74 -5.44444465637207 274
v -74 5.222222328186035 274
v 170 -5.44444465637207 274
v 170 5.222222328186035 274
v 48 -5.44444465637207 274
v 48 5.222222328186035 274
v 414 -5.44444465637207 103
v 414 5.222222328186035 103
v 414 -5.44444465637207 -74
v 414 5.222222328186035 -74
v 414 -5.44444465637207 14.5
v 414 5.222222328186035 14.5
v 414 -5.44444465637207 -74
v 414 5.222222328186035 -74
v -74 -5.44444465637207 -74
v -74 5.222222328186035 -74
v 170 -5.44444465637207 -74
v 170 5.222222328186035 -74
v -74 -5.44444465637207 -74
v 414 -5.44444465637207 -74
v -74 -5.44444465637207 274
v -74 -5.44444465637207 100
v 48 -5.44444465637207 274
v 170 -5.44444465637207 274
v 170 -5.44444465637207 -74
v 170 -5.44444465637207 103
v 292 -5.44444465637207 103
v 414 -5.44444465637207 103
v 170 -5.44444465637207 188.5
v 414 -5.44444465637207 14.5
v -74 5.222222328186035 -74
v 414 5.222222328186035 -74
v -74 5.222222328186035 274
v -74 5.222222328186035 100
v 48 5.222222328186035 274
v 170 5.222222328186035 274
v 170 5.222222328186035 -74
v 170 5.222222328186035 103
v 292 5.222222328186035 103
v 414 5.222222328186035 103
v 170 5.222222328186035 188.5
v 414 5.222222328186035 14.5
v 170 -5.44444465637207 103
v 414 5.222222328186035 103
v 414 -5.44444465637207 103
v 292 -5.44444465637207 103
v 170 5.222222328186035 103
v 292 5.222222328186035 103
v 170 5.222222328186035 274
v 170 -5.44444465637207 274
v 170 5.222222328186035 103
v 170 -5.44444465637207 103
v 170 -5.44444465637207 188.5
v 170 5.222222328186035 188.5
vt 0.9836652874946594 0
vt 0.9702602028846741 0
vt 0.9836652874946594 0.485130101442337
vt 0.9702602028846741 0.485130101442337
vt 0.9836652874946594 0.2425650507211685
vt 0.9702602028846741 0.2425650507211685
vt 0 0.0446096658706665
vt 0 0.05801470950245857
vt 0.3401486873626709 0.0446096658706665
vt 0.3401486873626709 0.05801470950245857
vt 0.1700743436813355 0.0446096658706665
vt 0.1700743436813355 0.05801470950245857
vt 0 0.01486988831311464
vt 0 0.02827493287622929
vt 0.2467472106218338 0.01486988831311464
vt 0.2467472106218338 0.02827493287622929
vt 0.1233736053109169 0.01486988831311464
vt 0.1233736053109169 0.02827493287622929
vt 0.99853515625 0
vt 0.9851301312446594 0
vt 0.99853515625 0.6802973747253418
vt 0.9851301312446594 0.6802973747253418
vt 0.99853515625 0.3401486873626709
vt 0.9851301312446594 0.3401486873626709
vt 0.485130101442337 0
vt 0.485130101442337 0.6802973747253418
vt 0.9687953591346741 0
vt 0.7269627451896668 0
vt 0.9687953591346741 0.1700743436813355
vt 0.9687953591346741 0.3401486873626709
vt 0.485130101442337 0.3401486873626709
vt 0.7311322689056397 0.3401486873626709
vt 0.7311322689056397 0.5102230310440064
vt 0.7311322689056397 0.6802973747253418
vt 0.8499638438224793 0.3401486873626709
vt 0.6081311702728272 0.6802973747253418
vt 0 0.05947955325245857
vt 0 0.7383121252059937
vt 0.483665257692337 0.05947955325245857
vt 0.2418326288461685 0.05947955325245857
vt 0.483665257692337 0.2291876971721649
vt 0.483665257692337 0.3988958299160004
vt 0 0.3988958299160004
vt 0.2460021525621414 0.3988958299160004
vt 0.2460021525621414 0.5686039924621582
vt 0.2460021525621414 0.7383121252059937
vt 0.3648337125778198 0.3988958299160004
vt 0.1230010762810707 0.7383121252059937
vt 0 0.0431448221206665
vt 0.3401486873626709 0.02973977662622929
vt 0.3401486873626709 0.0431448221206665
vt 0.1700743436813355 0.0431448221206665
vt 0 0.02973977662622929
vt 0.1700743436813355 0.02973977662622929
vt 0 0
vt 0 0.01340504456311464
vt 0.2383829057216644 0
vt 0.2383829057216644 0.01340504456311464
vt 0.1191914528608322 0.01340504456311464
vt 0.1191914528608322 0
vn -1 0 0
vn -1 0 0
vn -1 0 0
vn -1 0 0
vn -1 0 0
vn -1 0 0
vn 0 0 1
vn 0 0 1
vn 0 0 1
vn 0 0 1
vn 0 0 1
vn 0 0 1
vn 1 0 0
vn 1 0 0
vn 1 0 0
vn 1 0 0
vn 1 0 0
vn 1 0 0
vn 0 0 -1
vn 0 0 -1
vn 0 0 -1
vn 0 0 -1
vn 0 0 -1
vn 0 0 -1
vn 0 -1 0
vn 0 -1 0
vn 0 -1 0
vn 0 -1 0
vn 0 -1 0
vn 0 -1 0
vn 0 -1 0
vn 0 -1 0
vn 0 -1 0
vn 0 -1 0
vn 0 -1 0
vn 0 -1 0
vn 0 1 0
vn 0 1 0
vn 0 1 0
vn 0 1 0
vn 0 1 0
vn 0 1 0
vn 0 1 0
vn 0 1 0
vn 0 1 0
vn 0 1 0
vn 0 1 0
vn 0 1 0
vn 0 0 1
vn 0 0 1
vn 0 0 1
vn 0 0 1
vn -2.775557561562891e-17 0 1
vn -2.775557561562891e-17 0 1
vn 1 0 0
vn 1 0 0
vn 1 0 0
vn 1 0 0
vn 1 0 0
vn 1 0 0
f 2/2/2 1/1/1 5/5/5 6/6/6
f 3/3/3 4/4/4 6/6/6 5/5/5
f 8/8/8 7/7/7 11/11/11 12/12/12
f 9/9/9 10/10/10 12/12/12 11/11/11
f 14/14/14 13/13/13 17/17/17 18/18/18
f 15/15/15 16/16/16 18/18/18 17/17/17
f 20/20/20 19/19/19 23/23/23 24/24/24
f 21/21/21 22/22/22 24/24/24 23/23/23
f 25/25/25 31/31/31 32/32/32 28/28/28
f 26/26/26 36/36/36 31/31/31
f 31/31/31 36/36/36 33/33/33
f 32/32/32 31/31/31 33/33/33
f 32/32/32 35/35/35 28/28/28
f 35/35/35 29/29/29 28/28/28
f 30/30/30 29/29/29 35/35/35
f 36/36/36 34/34/34 33/33/33
f 29/29/29 27/27/27 28/28/28
f 37/37/37 40/40/40 44/44/44 43/43/43
f 38/38/38 43/43/43 48/48/48
f 43/43/43 45/45/45 48/48/48
f 44/44/44 45/45/45 43/43/43
f 44/44/44 40/40/40 47/47/47
f 47/47/47 40/40/40 41/41/41
f 42/42/42 47/47/47 41/41/41
f 48/48/48 45/45/45 46/46/46
f 41/41/41 40/40/40 39/39/39
f 49/49/49 52/52/52 54/54/54 53/53/53
f 50/50/50 54/54/54 52/52/52 51/51/51
f 56/56/56 59/59/59 60/60/60 55/55/55
f 57/57/57 60/60/60 59/59/59 58/58/58
